# xmcd
#
# Track frame offsets: 
#        150
#        13550
#        27495
#        41195
#        55425
#        67295
#        79147
#        91900
#        106875
#        120625
#        134970
#        148627
#        159760
#        173327
#        189120
#        198865
#        210060
#        222980
#        233627
#        246467
#        260224
#
# Disc length: 3612 seconds
#
# Revision: 0
# Processed by: cddbd v1.5.2PL0 Copyright (c) Steve Scherf et al.
# Submitted via: ExactAudioCopy v1.1
#
DISCID=2c0e1a15
DTITLE=Etta James - Spoonful Of Blues
DYEAR=2012
DGENRE=Blues
TTITLE0=All I Could Do Is Cry
TTITLE1=My Dearest Darling
TTITLE2=If I Can't Have You
TTITLE3=I Just Want To Make Love To You
TTITLE4=Anything To Say You're Mine
TTITLE5=In My Diary
TTITLE6=Spoonful
TTITLE7=A Sunday Kind Of Love
TTITLE8=At Last
TTITLE9=Stormy Weather
TTITLE10=Trust In Me
TTITLE11=Don't Cry Baby
TTITLE12=Fool That I Am
TTITLE13=One For My Baby (And One More For The Road)
TTITLE14=Waiting For Charlie (To Come Home)
TTITLE15=Don't Get Around Much More
TTITLE16=Next Door To The Blues
TTITLE17=I Don't Want It
TTITLE18=Something's Got A Hold On Me
TTITLE19=Dance With Me Henry
TTITLE20=Good Rocking Daddy
EXTD=
EXTT0=
EXTT1=
EXTT2=
EXTT3=
EXTT4=
EXTT5=
EXTT6=
EXTT7=
EXTT8=
EXTT9=
EXTT10=
EXTT11=
EXTT12=
EXTT13=
EXTT14=
EXTT15=
EXTT16=
EXTT17=
EXTT18=
EXTT19=
EXTT20=
PLAYORDER=
